<?xml version="1.0" encoding="iso-8859-1"?>
<!-- Generator: Adobe Illustrator 19.0.0, SVG Export Plug-In . SVG Version: 6.00 Build 0)  -->
<svg version="1.1" id="Capa_1" xmlns="http://www.w3.org/2000/svg" xmlns:xlink="http://www.w3.org/1999/xlink" x="0px" y="0px"
	 viewBox="0 0 512.002 512.002" style="enable-background:new 0 0 512.002 512.002;" xml:space="preserve">
<polygon style="fill:#EBAA39;" points="472.001,60.186 472.001,19.818 421.537,40.002 "/>
<circle style="fill:#F5EFE6;" cx="183.369" cy="136.002" r="32"/>
<path style="fill:#5E8DA7;" d="M111.657,253.602l23.712,23.712l12.688-12.688l-22.344-22.344c-1.504-1.504-2.344-3.536-2.344-5.656
	c0-2.128,0.848-4.16,2.344-5.656l28.632-28.624c2.296-2.288,5.728-2.984,8.72-1.736c2.984,1.24,4.936,4.16,4.936,7.392v184h24v-112
	c0-4.424,3.584-8,8-8h72c4.416,0,8,3.576,8,8v48h24v-56c0-13.232-10.768-24-24-24h-56c-4.416,0-8-3.576-8-8v-40c0-4.424,3.584-8,8-8
	h48c13.232,0,24-10.768,24-24v-64h-16v64c0,4.424-3.584,8-8,8h-62.152c-3.056,2.024-6.36,3.672-9.848,4.968v51.032h-16V183.97
	c-0.208,0-0.416,0.032-0.632,0.032c-10.192,0-19.632-3.216-27.408-8.648l-44.304,44.304
	C102.305,229.018,102.305,244.242,111.657,253.602z"/>
<g>
	<path style="fill:#C13D3D;" d="M208.001,302.314c1-0.528,2.008-1.088,2.984-1.568c1.776-0.864,3.592-1.68,5.4-2.488
		c3.976-1.784,7.728-3.456,10.76-5.704c1.288-0.952,2.432-2.664,3.328-4.552h-22.472V302.314z"/>
	<path style="fill:#C13D3D;" d="M102.425,334.322c13.552,4.32,32.76,7,49.576-2.864v-48.144l-10.976,10.968
		c-3.128,3.128-8.184,3.128-11.312,0l-29.368-29.368c-15.592-15.592-15.592-40.976,0-56.568l28.256-28.264
		c-20.728,10.4-35.792,26.568-45.584,39.968c-7.72,10.568-13.768,23.304-19.616,35.616c-1.68,3.536-3.352,7.056-5.048,10.496
		c-3.552,7.224-6.848,14.976-10.344,23.184c-4.864,11.44-9.824,23.08-15.76,33.96C56.145,319.554,83.609,328.306,102.425,334.322z"
		/>
	<polygon style="fill:#C13D3D;" points="152.001,245.938 152.001,227.314 142.681,236.626 	"/>
</g>
<g>
	<path style="fill:#1F2933;" d="M488.001,240.002v-168v-64c0-2.656-1.32-5.136-3.52-6.624c-2.2-1.488-4.984-1.792-7.456-0.808
		l-80,32c-3.032,1.224-5.024,4.16-5.024,7.432s1.992,6.208,5.024,7.432l74.976,29.984v162.584h-8c-2.12,0-4.16,0.84-5.656,2.344
		L316.001,384.69l-30.344-30.344c-3.128-3.128-8.184-3.128-11.312,0l-94.344,94.344l-58.344-58.344
		c-3.128-3.128-8.184-3.128-11.312,0l-108,108c-1.504,1.496-2.344,3.528-2.344,5.656v8h16v-4.688l100-100l58.344,58.344
		c3.128,3.128,8.184,3.128,11.312,0l94.344-94.344l30.344,30.344c3.128,3.128,8.184,3.128,11.312,0l145.656-145.656h44.688v-16
		H488.001z M421.537,40.002l50.464-20.184v40.376L421.537,40.002z"/>
	<path style="fill:#1F2933;" d="M13.809,349.498c19.392-20.496,59.68-7.624,83.752,0.056c9.976,3.184,19.568,4.776,28.632,4.776
		c9.224,0,17.832-1.824,25.808-5.088v50.76c0,4.424,3.584,8,8,8h40c4.416,0,8-3.576,8-8v-77.736c1.768-2.64,5.04-4.704,10.024-7.144
		c1.608-0.792,3.248-1.52,4.888-2.248c4.584-2.048,9.328-4.168,13.76-7.456c5.224-3.872,9.104-10.536,10.648-17.416h16.68v48
		c0,4.424,3.584,8,8,8h40c4.416,0,8-3.576,8-8v-64c0-22.056-17.944-40-40-40h-48v-24h40c22.056,0,40-17.944,40-40v-72
		c0-4.424-3.584-8-8-8h-32c-4.416,0-8,3.576-8,8v64h-39.12c4.104-7.072,6.496-15.256,6.496-24c0-26.472-21.528-48-48-48
		s-48,21.528-48,48c0,8.016,2,15.56,5.488,22.216c-27.024,7.968-51.384,25.872-70.76,52.408
		c-8.608,11.784-14.984,25.208-21.144,38.184c-1.648,3.472-3.288,6.92-4.952,10.304c-3.752,7.616-7.288,15.936-10.712,23.984
		c-8.576,20.144-17.432,40.968-31.088,55.4c-0.008,0-0.008,0.008-0.008,0.008c-3.04,3.208-2.896,8.272,0.312,11.312
		C5.713,352.842,10.785,352.714,13.809,349.498z M152.001,245.938l-9.32-9.312l9.32-9.312V245.938z M227.153,292.554
		c-3.032,2.248-6.792,3.92-10.76,5.704c-1.808,0.808-3.624,1.616-5.4,2.488c-0.984,0.48-1.984,1.04-2.984,1.568v-14.312h22.48
		C229.585,289.89,228.441,291.602,227.153,292.554z M272.001,176.002c4.416,0,8-3.576,8-8v-64h16v64c0,13.232-10.768,24-24,24h-48
		c-4.416,0-8,3.576-8,8v40c0,4.424,3.584,8,8,8h56c13.232,0,24,10.768,24,24v56h-24v-48c0-4.424-3.584-8-8-8h-72
		c-4.416,0-8,3.576-8,8v112h-24v-184c0-3.232-1.952-6.16-4.936-7.392c-2.992-1.248-6.424-0.552-8.72,1.736l-28.632,28.624
		c-1.504,1.504-2.344,3.528-2.344,5.656s0.848,4.16,2.344,5.656l22.344,22.344l-12.688,12.688l-23.712-23.712
		c-9.352-9.36-9.352-24.584,0-33.944l44.304-44.304c7.784,5.432,17.224,8.648,27.408,8.648c0.216,0,0.416-0.032,0.632-0.032v48.032
		h16V180.97c3.488-1.296,6.792-2.944,9.848-4.968H272.001z M183.369,104.002c17.648,0,32,14.352,32,32s-14.352,32-32,32
		s-32-14.352-32-32S165.729,104.002,183.369,104.002z M48.009,289.362c3.488-8.208,6.792-15.96,10.344-23.184
		c1.696-3.448,3.368-6.96,5.048-10.496c5.848-12.312,11.896-25.048,19.616-35.616c9.792-13.408,24.864-29.568,45.584-39.968
		l-28.256,28.264c-15.592,15.592-15.592,40.976,0,56.568l29.368,29.368c3.128,3.128,8.184,3.128,11.312,0l10.976-10.984v48.144
		c-16.816,9.864-36.024,7.184-49.576,2.864c-18.816-6.016-46.288-14.768-70.176-11C38.185,312.442,43.145,300.802,48.009,289.362z"
		/>
</g>
<g>
</g>
<g>
</g>
<g>
</g>
<g>
</g>
<g>
</g>
<g>
</g>
<g>
</g>
<g>
</g>
<g>
</g>
<g>
</g>
<g>
</g>
<g>
</g>
<g>
</g>
<g>
</g>
<g>
</g>
</svg>
